<svg width="422" height="767" viewBox="0 0 422 767" fill="none" xmlns="http://www.w3.org/2000/svg">
<g filter="url(#filter0_d_68_741)">
<path d="M417.171 21.218H4.01709V741.978H417.171V21.218Z" fill="white"/>
<path d="M399.677 1.96324L392.046 15.2302C390.872 17.2261 387.937 17.2261 386.88 15.2302L379.249 1.96324C378.075 -0.0326698 375.139 -0.0326698 374.083 1.96324L366.569 14.9954C365.395 16.9913 362.46 16.9913 361.403 14.9954L353.889 1.96324C352.715 -0.0326698 349.78 -0.0326698 348.723 1.96324L340.974 15.2302C339.8 17.2261 336.865 17.2261 335.808 15.2302L328.177 1.96324C327.003 -0.0326698 324.068 -0.0326698 323.011 1.96324L315.614 14.878C314.44 16.8739 311.505 16.8739 310.448 14.878L303.052 1.96324C301.878 -0.0326698 298.943 -0.0326698 297.886 1.96324L290.254 15.2302C289.08 17.2261 286.145 17.2261 285.089 15.2302L277.457 1.96324C276.283 -0.0326698 273.348 -0.0326698 272.291 1.96324L264.777 14.9954C263.603 16.9913 260.668 16.9913 259.611 14.9954L251.745 1.96324C250.571 -0.0326698 247.636 -0.0326698 246.579 1.96324L238.83 15.2302C237.656 17.2261 234.721 17.2261 233.664 15.2302L226.033 1.96324C224.859 -0.0326698 221.924 -0.0326698 220.867 1.96324L213.47 14.7606C212.296 16.7565 209.361 16.7565 208.305 14.7606L200.908 1.96324C199.734 -0.0326698 196.799 -0.0326698 195.742 1.96324L188.111 15.2302C186.937 17.2261 184.001 17.2261 182.945 15.2302L175.313 1.96324C174.139 -0.0326698 171.204 -0.0326698 170.147 1.96324L162.633 14.9954C161.459 16.9913 158.524 16.9913 157.467 14.9954L149.953 1.96324C148.779 -0.0326698 145.844 -0.0326698 144.788 1.96324L137.156 15.2302C135.982 17.2261 133.047 17.2261 131.99 15.2302L124.359 1.96324C123.185 -0.0326698 120.25 -0.0326698 119.193 1.96324L111.796 14.878C110.622 16.8739 107.687 16.8739 106.63 14.878L99.2337 1.96324C98.0597 -0.0326698 95.1245 -0.0326698 94.0678 1.96324L86.4364 15.2302C85.2623 17.2261 82.3272 17.2261 81.2705 15.2302L73.052 1.96324C71.878 -0.0326698 68.9428 -0.0326698 67.8861 1.96324L60.3721 14.9954C59.1981 16.9913 56.2629 16.9913 55.2062 14.9954L47.5748 1.96324C46.4007 -0.0326698 43.4656 -0.0326698 42.4089 1.96324L34.7775 15.2302C33.6034 17.2261 30.6682 17.2261 29.6116 15.2302L21.8627 1.96324C20.6887 -0.0326698 17.7535 -0.0326698 16.6968 1.96324L4.83875 22.5094C3.66469 24.5053 5.07357 26.9709 7.4217 26.9709H27.8505H36.3037H53.3277H62.0158H79.0398H87.4931H104.282H113.205H129.994H138.448H155.472H164.16H181.184H189.637H206.426H232.138H240.591H257.615H266.303H283.327H291.781H308.57H317.375H334.165H342.618H359.642H368.33H385.354H393.807H414.236C416.584 26.9709 417.993 24.5053 416.819 22.5094L404.961 1.96324C403.787 -0.0326698 400.852 -0.0326698 399.677 1.96324Z" fill="#EDEEEF"/>
<path d="M4.01696 742.095L4.13437 757.71C5.07362 759.236 7.53916 759.354 8.36101 757.827L14.2313 747.73C14.701 747.026 15.4054 746.674 16.1099 746.556L22.5672 757.827C23.5065 759.354 25.6198 759.354 26.5591 757.827L32.4294 747.73C33.3686 746.204 35.482 746.204 36.4212 747.73L42.2915 757.827C43.2308 759.354 45.3441 759.354 46.2834 757.827L52.0363 747.848C52.9756 746.322 55.0889 746.322 56.0281 747.848L61.7811 757.827C62.7203 759.354 64.8336 759.354 65.7729 757.827L71.6432 747.73C72.5825 746.204 74.6958 746.204 75.6351 747.73L81.5054 757.827C82.4446 759.354 84.558 759.354 85.4972 757.827L91.1327 747.965C92.072 746.439 94.1853 746.439 95.1246 747.965L100.76 757.827C101.582 759.236 103.578 759.354 104.517 758.062C104.635 757.945 104.869 757.71 104.987 757.475L110.857 747.378C110.974 747.261 110.974 747.143 111.092 747.143C112.149 746.204 113.91 746.322 114.614 747.73L120.484 757.827C121.306 759.236 123.302 759.354 124.241 758.062C124.359 757.945 124.594 757.71 124.711 757.475L130.464 747.496C130.581 747.378 130.581 747.261 130.699 747.261C131.755 746.322 133.517 746.439 134.221 747.848L139.974 757.827C140.796 759.236 142.792 759.354 143.731 758.062C143.848 757.945 144.083 757.71 144.201 757.475L150.071 747.378C150.188 747.261 150.188 747.143 150.306 747.143C151.362 746.204 153.123 746.322 153.828 747.73L159.698 757.827C160.52 759.236 162.516 759.354 163.455 758.062C163.573 757.945 163.807 757.71 163.925 757.475L169.56 747.613C169.678 747.496 169.678 747.378 169.795 747.378C170.852 746.439 172.613 746.556 173.317 747.965L178.953 757.827C179.775 759.236 181.653 759.354 182.593 758.297C182.827 758.18 183.062 757.945 183.18 757.593L189.05 747.496C189.167 747.378 189.285 747.143 189.402 747.026C190.459 746.204 192.103 746.439 192.807 747.73L198.677 757.827C199.499 759.236 201.378 759.354 202.317 758.297C202.552 758.18 202.786 757.945 202.904 757.593L208.657 747.613C208.774 747.496 208.892 747.261 209.009 747.143C210.066 746.322 211.709 746.556 212.414 747.848L218.167 757.827C218.989 759.236 220.867 759.354 221.806 758.297C222.041 758.18 222.276 757.945 222.393 757.593L228.264 747.496C228.381 747.378 228.499 747.143 228.616 747.026C229.673 746.204 231.316 746.439 232.021 747.73L237.891 757.827C238.713 759.236 240.591 759.354 241.531 758.297C241.766 758.18 242 757.945 242.118 757.593L247.753 747.73C247.871 747.496 247.988 747.378 248.105 747.261C249.162 746.439 250.806 746.674 251.51 747.965L257.146 757.827C257.968 759.236 259.729 759.354 260.785 758.297C261.02 758.18 261.255 757.945 261.372 757.71L267.243 747.613C267.36 747.496 267.478 747.261 267.595 747.143C268.652 746.322 270.295 746.556 271 747.73L276.87 757.827C277.692 759.236 279.453 759.354 280.51 758.297C280.745 758.18 280.979 757.945 281.097 757.71L286.85 747.73C286.967 747.613 287.085 747.378 287.202 747.261C288.259 746.439 289.902 746.674 290.607 747.848L296.36 757.827C297.181 759.236 298.943 759.354 299.999 758.297C300.234 758.18 300.469 757.945 300.586 757.71L306.457 747.613C306.574 747.496 306.691 747.261 306.809 747.143C307.865 746.322 309.509 746.556 310.214 747.73L316.084 757.827C316.906 759.236 318.667 759.354 319.724 758.297C319.958 758.18 320.193 757.945 320.311 757.71L325.946 747.848C326.885 746.322 328.999 746.322 329.938 747.848L335.573 757.71C336.513 759.236 338.626 759.236 339.565 757.71L345.436 747.613C346.375 746.087 348.488 746.087 349.427 747.613L355.298 757.71C356.237 759.236 358.35 759.236 359.29 757.71L365.043 747.73C365.982 746.204 368.095 746.204 369.034 747.73L374.787 757.71C375.727 759.236 377.84 759.236 378.779 757.71L384.649 747.613C385.589 746.087 387.702 746.087 388.641 747.613L394.512 757.71C395.451 759.236 397.564 759.236 398.503 757.71L404.961 746.439C405.665 746.439 406.37 746.909 406.839 747.613L412.71 757.71C413.649 759.236 416.114 759.236 416.936 757.593L417.054 741.978C417.171 739.864 416.702 738.455 414.94 738.455H408.013H405.548H401.556H389.815H383.358H370.326H363.634H350.602H344.144H331.229H324.42H311.505H305.048H292.016H285.323H272.291H265.834H252.919H233.195H227.09H214.058H207.365H194.333H187.876H174.961H168.152H155.237H148.779H135.747H129.055H116.14H109.683H94.0679C93.7157 738.455 93.3635 738.573 93.0112 738.69H89.8413H76.9265H70.4692H57.437H50.7448H37.7127H31.2553H19.5146H15.5228H13.0573H6.13028C4.36918 738.573 3.89956 739.864 4.01696 742.095Z" fill="#EDEEEF"/>
<path d="M71.8779 662.846H47.8096V666.133H71.8779V662.846Z" fill="#EDEEEF"/>
<path d="M40.5303 662.846H16.4619V666.133H40.5303V662.846Z" fill="#EDEEEF"/>
<path d="M101.112 662.846H77.0437V666.133H101.112V662.846Z" fill="#EDEEEF"/>
<path d="M131.755 662.846H107.687V666.133H131.755V662.846Z" fill="#EDEEEF"/>
<path d="M160.989 662.846H136.921V666.133H160.989V662.846Z" fill="#EDEEEF"/>
<path d="M190.811 662.846H166.742V666.133H190.811V662.846Z" fill="#EDEEEF"/>
<path d="M220.163 662.846H196.094V666.133H220.163V662.846Z" fill="#EDEEEF"/>
<path d="M250.218 662.846H226.15V666.133H250.218V662.846Z" fill="#EDEEEF"/>
<path d="M279.57 662.846H255.502V666.133H279.57V662.846Z" fill="#EDEEEF"/>
<path d="M310.096 662.846H286.027V666.133H310.096V662.846Z" fill="#EDEEEF"/>
<path d="M339.448 662.846H315.379V666.133H339.448V662.846Z" fill="#EDEEEF"/>
<path d="M369.269 662.846H345.2V666.133H369.269V662.846Z" fill="#EDEEEF"/>
<path d="M397.447 662.846H373.378V666.133H397.447V662.846Z" fill="#EDEEEF"/>
<path d="M417.171 662.846H405.313V666.133H417.171V662.846Z" fill="#EDEEEF"/>
<path d="M8.59571 663.081H4.01685V666.368H8.59571V663.081Z" fill="#EDEEEF"/>
<path d="M71.8782 156.94H47.8098V160.228H71.8782V156.94Z" fill="#EDEEEF"/>
<path d="M40.5305 156.94H16.4622V160.228H40.5305V156.94Z" fill="#EDEEEF"/>
<path d="M101.112 156.94H77.0439V160.228H101.112V156.94Z" fill="#EDEEEF"/>
<path d="M131.755 156.94H107.687V160.228H131.755V156.94Z" fill="#EDEEEF"/>
<path d="M160.99 156.94H136.921V160.228H160.99V156.94Z" fill="#EDEEEF"/>
<path d="M190.811 156.94H166.742V160.228H190.811V156.94Z" fill="#EDEEEF"/>
<path d="M220.163 156.94H196.094V160.228H220.163V156.94Z" fill="#EDEEEF"/>
<path d="M250.219 156.94H226.15V160.228H250.219V156.94Z" fill="#EDEEEF"/>
<path d="M279.57 156.94H255.502V160.228H279.57V156.94Z" fill="#EDEEEF"/>
<path d="M310.096 156.94H286.028V160.228H310.096V156.94Z" fill="#EDEEEF"/>
<path d="M339.448 156.94H315.379V160.228H339.448V156.94Z" fill="#EDEEEF"/>
<path d="M369.269 156.94H345.201V160.228H369.269V156.94Z" fill="#EDEEEF"/>
<path d="M397.447 156.94H373.379V160.228H397.447V156.94Z" fill="#EDEEEF"/>
<path d="M417.171 156.94H405.313V160.228H417.171V156.94Z" fill="#EDEEEF"/>
<path d="M8.59595 157.175H4.01709V160.462H8.59595V157.175Z" fill="#EDEEEF"/>
</g>
<defs>
<filter id="filter0_d_68_741" x="0" y="0.466309" width="421.241" height="766.534" filterUnits="userSpaceOnUse" color-interpolation-filters="sRGB">
<feFlood flood-opacity="0" result="BackgroundImageFix"/>
<feColorMatrix in="SourceAlpha" type="matrix" values="0 0 0 0 0 0 0 0 0 0 0 0 0 0 0 0 0 0 127 0" result="hardAlpha"/>
<feOffset dy="4"/>
<feGaussianBlur stdDeviation="2"/>
<feComposite in2="hardAlpha" operator="out"/>
<feColorMatrix type="matrix" values="0 0 0 0 0 0 0 0 0 0 0 0 0 0 0 0 0 0 0.25 0"/>
<feBlend mode="normal" in2="BackgroundImageFix" result="effect1_dropShadow_68_741"/>
<feBlend mode="normal" in="SourceGraphic" in2="effect1_dropShadow_68_741" result="shape"/>
</filter>
</defs>
</svg>
