<svg width="37" height="37" viewBox="0 0 37 37" fill="none" xmlns="http://www.w3.org/2000/svg">
<g clip-path="url(#clip0_25_151)">
<path d="M8.63318 8.88H18.5V12.8267H8.63318V8.88Z" fill="white"/>
<path d="M21.4601 3.94674H5.67321C5.14981 3.94674 4.64805 4.15466 4.27789 4.52468C3.90789 4.89468 3.69995 5.39661 3.69995 5.92V27.6268C3.69995 28.1503 3.90787 28.652 4.27789 29.0222C4.6481 29.3922 5.14982 29.6001 5.67321 29.6001H21.4601C21.9835 29.6001 22.4854 29.3922 22.8554 29.0222C23.2254 28.652 23.4333 28.1502 23.4333 27.6268V5.92C23.4333 5.39659 23.2254 4.89468 22.8554 4.52468C22.4854 4.15468 21.9834 3.94674 21.4601 3.94674ZM9.62006 26.6399H7.64679C7.38333 26.6424 7.12999 26.5396 6.94295 26.3543C6.75588 26.1689 6.65058 25.9166 6.65058 25.6531C6.65058 25.3899 6.75589 25.1374 6.94295 24.9522C7.13002 24.7667 7.38335 24.6639 7.64679 24.6666H9.62006C9.88331 24.6639 10.1369 24.7667 10.3239 24.9522C10.511 25.1374 10.6163 25.3899 10.6163 25.6531C10.6163 25.9166 10.511 26.1689 10.3239 26.3543C10.1368 26.5396 9.88329 26.6424 9.62006 26.6399ZM9.62006 22.6932H7.64679C7.38333 22.6958 7.12999 22.593 6.94295 22.4076C6.75588 22.2224 6.65058 21.9699 6.65058 21.7066C6.65058 21.4432 6.75589 21.1908 6.94295 21.0054C7.13002 20.8202 7.38335 20.7174 7.64679 20.7199H9.62006C9.88331 20.7174 10.1369 20.8202 10.3239 21.0054C10.511 21.1908 10.6163 21.4431 10.6163 21.7066C10.6163 21.9699 10.511 22.2224 10.3239 22.4076C10.1368 22.593 9.88329 22.6958 9.62006 22.6932ZM9.62006 18.7466H7.64679C7.29434 18.7466 6.96853 18.5585 6.7922 18.2532C6.61608 17.948 6.61608 17.5718 6.7922 17.2666C6.96853 16.9613 7.29434 16.7732 7.64679 16.7732H9.62006C9.97251 16.7732 10.2983 16.9613 10.4747 17.2666C10.6508 17.5718 10.6508 17.948 10.4747 18.2532C10.2983 18.5585 9.97251 18.7466 9.62006 18.7466ZM14.5533 26.6398H12.5801C12.3168 26.6423 12.0633 26.5394 11.8762 26.3542C11.6891 26.1688 11.5838 25.9165 11.5838 25.653C11.5838 25.3898 11.6891 25.1373 11.8762 24.952C12.0633 24.7666 12.3168 24.6638 12.5801 24.6665H14.5533C14.8168 24.6638 15.0701 24.7666 15.2572 24.952C15.4442 25.1373 15.5495 25.3898 15.5495 25.653C15.5495 25.9165 15.4442 26.1688 15.2572 26.3542C15.0701 26.5394 14.8168 26.6423 14.5533 26.6398ZM14.5533 22.6931H12.5801C12.3168 22.6957 12.0633 22.5929 11.8762 22.4075C11.6891 22.2223 11.5838 21.9698 11.5838 21.7065C11.5838 21.4431 11.6891 21.1907 11.8762 21.0053C12.0633 20.8201 12.3168 20.7173 12.5801 20.7198H14.5533C14.8168 20.7173 15.0701 20.8201 15.2572 21.0053C15.4442 21.1907 15.5495 21.443 15.5495 21.7065C15.5495 21.9698 15.4442 22.2223 15.2572 22.4075C15.0701 22.5929 14.8168 22.6957 14.5533 22.6931ZM14.5533 18.7465H12.5801C12.2276 18.7465 11.9018 18.5584 11.7255 18.2531C11.5493 17.9479 11.5493 17.5717 11.7255 17.2665C11.9018 16.9612 12.2276 16.7731 12.5801 16.7731H14.5533C14.9058 16.7731 15.2316 16.9612 15.4079 17.2665C15.584 17.5717 15.584 17.9479 15.4079 18.2531C15.2316 18.5584 14.9058 18.7465 14.5533 18.7465ZM19.4868 26.6397H17.5133C17.1631 26.6364 16.841 26.4475 16.6668 26.1435C16.4927 25.8398 16.4927 25.4663 16.6668 25.1624C16.841 24.8587 17.1631 24.6698 17.5133 24.6664H19.4868C19.837 24.6698 20.1591 24.8587 20.3334 25.1624C20.5074 25.4663 20.5074 25.8398 20.3334 26.1435C20.1591 26.4475 19.837 26.6364 19.4868 26.6397ZM19.4868 22.6929H17.5133C17.1631 22.6896 16.841 22.5007 16.6668 22.197C16.4927 21.8931 16.4927 21.5196 16.6668 21.2159C16.841 20.9119 17.1631 20.723 17.5133 20.7197H19.4868C19.837 20.723 20.1591 20.9119 20.3334 21.2159C20.5074 21.5196 20.5074 21.8931 20.3334 22.197C20.1591 22.5007 19.837 22.6896 19.4868 22.6929ZM19.4868 18.7464H17.5133C17.1609 18.7464 16.8351 18.5583 16.6589 18.253C16.4826 17.9478 16.4826 17.5716 16.6589 17.2664C16.8351 16.9611 17.1609 16.773 17.5133 16.773H19.4868C19.8392 16.773 20.1651 16.9611 20.3412 17.2664C20.5175 17.5716 20.5175 17.9478 20.3412 18.253C20.1651 18.5583 19.8392 18.7464 19.4868 18.7464ZM20.4733 13.8129C20.4735 14.0748 20.3695 14.3256 20.1845 14.5108C19.9995 14.6958 19.7484 14.7997 19.4868 14.7997H7.6468C7.385 14.7997 7.13413 14.6958 6.94893 14.5108C6.76393 14.3256 6.66008 14.0747 6.66008 13.8129V7.89295C6.66008 7.63135 6.76393 7.38027 6.94893 7.19528C7.13414 7.01028 7.385 6.90622 7.6468 6.90643H19.4868C19.7484 6.90643 19.9995 7.01028 20.1845 7.19528C20.3695 7.38028 20.4733 7.63136 20.4733 7.89295V13.8129Z" fill="white"/>
<path d="M28.3669 5.92C28.1055 5.91917 27.8548 5.8149 27.67 5.63011C27.4852 5.44532 27.381 5.19466 27.3801 4.93324V-2.14577e-05H13.567C13.044 0.00163033 12.5431 0.209964 12.1733 0.579769C11.8037 0.949356 11.5951 1.45048 11.5935 1.97324H21.4604C22.5072 1.97304 23.5113 2.38867 24.2515 3.12886C24.9917 3.86907 25.4073 4.87314 25.4071 5.91998V7.89324H29.3536C29.7061 7.89324 30.0319 8.08134 30.2082 8.38671C30.3843 8.69188 30.3843 9.06809 30.2082 9.37324C30.0319 9.67861 29.7061 9.86671 29.3536 9.86671H25.4071V11.84H29.3536C29.6171 11.8375 29.8704 11.9403 30.0575 12.1255C30.2445 12.3109 30.3498 12.5632 30.3498 12.8267C30.3498 13.09 30.2445 13.3425 30.0575 13.5277C29.8704 13.7131 29.6171 13.8159 29.3536 13.8133H25.4071V15.7867H29.3536C29.6171 15.7841 29.8704 15.8869 30.0575 16.0723C30.2445 16.2575 30.3498 16.51 30.3498 16.7733C30.3498 17.0367 30.2445 17.289 30.0575 17.4745C29.8704 17.6597 29.6171 17.7625 29.3536 17.76H25.4071V19.7333H29.3536C29.7061 19.7333 30.0319 19.9214 30.2082 20.2268C30.3843 20.5319 30.3843 20.9081 30.2082 21.2133C30.0319 21.5187 29.7061 21.7068 29.3536 21.7068H25.4071V23.68H29.3536C29.6171 23.6775 29.8704 23.7804 30.0575 23.9656C30.2445 24.151 30.3498 24.4033 30.3498 24.6668C30.3498 24.93 30.2445 25.1825 30.0575 25.3678C29.8704 25.5532 29.6171 25.656 29.3536 25.6533H25.4071V27.6268C25.4063 28.3199 25.2225 29.0007 24.8742 29.6001H31.327C31.8498 29.5984 32.3507 29.3901 32.7205 29.0203C33.0902 28.6505 33.2986 28.1496 33.3002 27.6268V5.91995L28.3669 5.92Z" fill="white"/>
<path d="M29.3533 -4.76837e-07V3.94695H33.3002L29.3533 -4.76837e-07Z" fill="white"/>
</g>
<defs>
<clipPath id="clip0_25_151">
<rect width="37" height="37" fill="white"/>
</clipPath>
</defs>
</svg>
