<svg width="42" height="42" viewBox="0 0 42 42" fill="none" xmlns="http://www.w3.org/2000/svg">
<path d="M19.3774 40.0962H41.8456V41.9997L16.1626 42C15.3074 42.0016 14.4879 41.6584 13.8892 41.0481L0.942447 28.1129C0.338911 27.5081 0 26.6881 0 25.8334C0 24.9786 0.33887 24.1587 0.942447 23.5539L3.03525 21.4505L20.5283 38.9544L19.3774 40.0962ZM41.1608 18.3092L41.1604 18.3095C41.6977 17.7734 42 17.0459 42 16.2868C42 15.5277 41.6978 14.7997 41.1604 14.2641L27.7107 0.80596C27.1648 0.288407 26.4412 0 25.6892 0C24.9372 0 24.2139 0.288416 23.6677 0.80596L4.38668 20.1087L21.8699 37.6028L41.1608 18.3092Z" fill="#06B0D8"/>
</svg>
