<svg width="45" height="45" viewBox="0 0 45 45" fill="none" xmlns="http://www.w3.org/2000/svg">
<g opacity="0.35">
<path d="M31.5 7.2H26.9234L26.1585 6.05237C26.0757 5.92682 25.9356 5.85073 25.7851 5.84998H19.2151C19.0647 5.85073 18.9246 5.92682 18.8417 6.05237L18.0769 7.2H13.5003C13.2517 7.2 13.0503 7.4014 13.0503 7.65V9.9H31.9503V7.65C31.9503 7.53072 31.9028 7.41621 31.8185 7.33184C31.7341 7.24746 31.6196 7.2 31.5003 7.2H31.5Z" fill="#06B0D8"/>
<path d="M14.3999 27.45C14.3999 28.1662 14.6844 28.8527 15.1907 29.3592C15.6972 29.8655 16.3838 30.15 17.0999 30.15H27.8999C28.6161 30.15 29.3026 29.8655 29.8091 29.3592C30.3154 28.8527 30.5999 28.1661 30.5999 27.45V11.25H14.3999V27.45Z" fill="#06B0D8"/>
</g>
</svg>
