<svg width="29" height="29" viewBox="0 0 29 29" fill="none" xmlns="http://www.w3.org/2000/svg">
<path fill-rule="evenodd" clip-rule="evenodd" d="M18.0148 21.9987C17.5037 21.5828 16.753 21.6609 16.3383 22.1733L15.221 23.5524V15.2507H23.5062L22.1297 16.3702C21.6186 16.7862 21.5408 17.5381 21.9555 18.0501C22.1913 18.3411 22.535 18.4919 22.8817 18.4919C23.1459 18.4919 23.4115 18.4044 23.6324 18.2247L27.6172 14.9834L27.6201 14.9809C27.6524 14.9545 27.683 14.9265 27.7123 14.8968C27.7204 14.8887 27.7276 14.8798 27.7357 14.8713C27.7565 14.8492 27.7765 14.8267 27.7952 14.8033C27.8045 14.7918 27.813 14.7799 27.8219 14.7676C27.8381 14.7459 27.8538 14.7238 27.8687 14.7009C27.8767 14.6882 27.884 14.6754 27.8916 14.6627C27.9056 14.6389 27.9192 14.6147 27.9311 14.5896C27.9375 14.5773 27.9439 14.5649 27.9494 14.5522C27.9613 14.5259 27.9723 14.4987 27.9825 14.4711C27.9868 14.4592 27.9915 14.4473 27.9957 14.4354C28.0055 14.4065 28.0136 14.3767 28.0208 14.347C28.0237 14.3355 28.0272 14.3241 28.0297 14.3126C28.0365 14.2811 28.0416 14.2489 28.0458 14.2166C28.0475 14.2059 28.0497 14.1962 28.0509 14.1856C28.0552 14.1431 28.0582 14.1002 28.0582 14.0564C28.0582 14.0126 28.0552 13.9697 28.0509 13.9272C28.0497 13.9166 28.0475 13.9064 28.0458 13.8962C28.0416 13.8639 28.0365 13.8316 28.0297 13.8002C28.0272 13.7887 28.0237 13.7773 28.0208 13.7658C28.0136 13.7361 28.0055 13.7063 27.9957 13.6774C27.9915 13.6655 27.9872 13.6536 27.9825 13.6417C27.9723 13.6141 27.9613 13.5869 27.9494 13.5606C27.9439 13.5478 27.9375 13.5355 27.9316 13.5232C27.9192 13.4981 27.9056 13.4739 27.8912 13.4497C27.884 13.437 27.8768 13.4246 27.8687 13.4123C27.8538 13.3889 27.8377 13.3664 27.8211 13.3443C27.8126 13.3329 27.8045 13.321 27.7956 13.3099C27.7761 13.2853 27.7548 13.2619 27.7336 13.239C27.7264 13.2317 27.72 13.2237 27.7128 13.2165C27.6834 13.1863 27.652 13.1582 27.6193 13.1315L27.6172 13.1294L23.6324 9.88809C23.1213 9.47216 22.3702 9.55033 21.9555 10.0627C21.5408 10.5747 21.619 11.3271 22.1301 11.7426L23.5062 12.8621H15.221V4.56036L16.338 5.93948C16.5738 6.23051 16.9175 6.38134 17.2642 6.38134C17.528 6.38134 17.794 6.29381 18.0149 6.11453C18.526 5.69859 18.6038 4.94662 18.1891 4.43467L14.9547 0.441852L14.9517 0.438878C14.9254 0.406164 14.8973 0.375575 14.868 0.34626C14.8599 0.338187 14.851 0.330965 14.8429 0.323317C14.8209 0.302498 14.7983 0.282105 14.7745 0.263412C14.7631 0.254065 14.7508 0.245568 14.7393 0.236646C14.7172 0.220502 14.6951 0.204782 14.6722 0.189912C14.6598 0.181839 14.6471 0.174192 14.6343 0.166545C14.6106 0.152524 14.5859 0.139354 14.5613 0.126608C14.5489 0.12066 14.5366 0.114713 14.5239 0.108764C14.4975 0.0964436 14.4703 0.0858218 14.4427 0.0756252C14.4313 0.0713767 14.4194 0.0662784 14.407 0.062455C14.3782 0.0526833 14.3488 0.0446112 14.3187 0.036963C14.3072 0.033989 14.2962 0.0310149 14.2847 0.0280409C14.2532 0.0212432 14.2214 0.0165696 14.1887 0.011896C14.1785 0.0106214 14.1683 0.00849716 14.1581 0.00722256C14.1156 0.00254909 14.0727 0 14.0289 0C13.9852 0 13.9423 0.0025492 13.9002 0.00722256C13.8896 0.00849716 13.8798 0.0106214 13.8692 0.011896C13.8369 0.0165695 13.805 0.0212428 13.7736 0.0280409C13.7617 0.0310149 13.7506 0.033989 13.7392 0.036963C13.7094 0.0446104 13.6797 0.0526826 13.6508 0.062455C13.6389 0.0662787 13.627 0.071377 13.6151 0.0756252C13.5875 0.0858218 13.5607 0.0964436 13.534 0.108764C13.5216 0.114712 13.5093 0.120661 13.497 0.126608C13.4719 0.139354 13.4477 0.152524 13.4235 0.166545C13.4108 0.174192 13.3984 0.181839 13.3861 0.189912C13.3632 0.204782 13.3407 0.220502 13.319 0.236646C13.3071 0.245568 13.2952 0.254066 13.2837 0.263412C13.2599 0.282106 13.2374 0.3025 13.2153 0.323317C13.2068 0.330964 13.1983 0.338187 13.1902 0.34626C13.1605 0.375575 13.1325 0.406164 13.1061 0.438878L13.1036 0.441852L9.86873 4.43467C9.45407 4.94662 9.53224 5.69862 10.0434 6.11453C10.554 6.53004 11.3048 6.45187 11.7198 5.93948L12.8372 4.56036V12.8621H4.55155L5.92806 11.7426C6.43917 11.3271 6.51734 10.5747 6.10226 10.0627C5.68717 9.55076 4.93686 9.47216 4.42578 9.88809L0.441004 13.1294L0.438455 13.1315C0.405741 13.1582 0.374726 13.1863 0.344985 13.2165C0.338188 13.2237 0.331815 13.2313 0.324592 13.239C0.302924 13.2619 0.282108 13.2853 0.262564 13.3099C0.253642 13.321 0.245569 13.3329 0.237072 13.3439C0.220078 13.3664 0.203934 13.3889 0.189063 13.4123C0.181416 13.4246 0.174193 13.437 0.166546 13.4497C0.152525 13.4739 0.13893 13.4981 0.126609 13.5232C0.120237 13.5355 0.114289 13.5478 0.10834 13.5606C0.0964438 13.5869 0.0853973 13.6141 0.0752007 13.6417C0.0709521 13.6536 0.066279 13.6655 0.0624549 13.6774C0.0526832 13.7063 0.0446109 13.7361 0.0369626 13.7662C0.0339886 13.7777 0.0305898 13.7887 0.0280406 13.8002C0.0212429 13.8316 0.0161454 13.8639 0.011896 13.8962C0.0106214 13.9064 0.00849718 13.9166 0.00722258 13.9272C0.00254923 13.9697 0 14.0126 0 14.0564C0 14.1002 0.00254923 14.1431 0.00722258 14.1856C0.00849718 14.1962 0.0106214 14.2059 0.011896 14.2166C0.0161447 14.2489 0.0212426 14.2811 0.0280406 14.3126C0.0305898 14.3241 0.0339886 14.3355 0.0369626 14.347C0.04461 14.3767 0.0526825 14.4065 0.0624549 14.4354C0.0662786 14.4473 0.0709517 14.4592 0.0756247 14.4711C0.0853965 14.4987 0.0964433 14.5259 0.108339 14.5522C0.114287 14.5649 0.120235 14.5773 0.126608 14.5896C0.138928 14.6147 0.152524 14.6389 0.166545 14.6627C0.173768 14.6754 0.181415 14.6882 0.189487 14.7009C0.203932 14.7238 0.220077 14.7459 0.236222 14.7676C0.245144 14.7799 0.253217 14.7918 0.262564 14.8033C0.281682 14.8267 0.301651 14.8492 0.322469 14.8713C0.330116 14.8798 0.337339 14.8887 0.345411 14.8968C0.374726 14.9265 0.405741 14.9545 0.437605 14.9809L0.440579 14.9834L4.42579 18.2247C4.64671 18.4044 4.91225 18.4919 5.17608 18.4919C5.52277 18.4919 5.8669 18.3411 6.10227 18.0501C6.51735 17.5381 6.43919 16.7861 5.92807 16.3702L4.55156 15.2507H12.8372V23.5524L11.7198 22.1733C11.3048 21.6609 10.5544 21.5828 10.0434 21.9987C9.53226 22.4142 9.45408 23.1662 9.86917 23.6785L13.1036 27.6709L13.1057 27.6735C13.1325 27.7062 13.1605 27.7372 13.1907 27.7669C13.1979 27.7742 13.2055 27.7805 13.2132 27.7878C13.2361 27.809 13.2595 27.8303 13.2841 27.8498C13.2952 27.8587 13.3067 27.8668 13.3181 27.8753C13.3402 27.8923 13.3627 27.908 13.3861 27.9233C13.3984 27.9309 13.4108 27.9386 13.4235 27.9458C13.4477 27.9598 13.4719 27.9734 13.497 27.9862C13.5093 27.9921 13.5216 27.9981 13.534 28.004C13.5607 28.0163 13.5875 28.027 13.6151 28.0372C13.627 28.0418 13.6389 28.0465 13.6508 28.0503C13.6797 28.0601 13.7094 28.0682 13.7396 28.0758C13.7506 28.0788 13.7617 28.0818 13.7732 28.0847C13.8046 28.0915 13.8369 28.0966 13.8692 28.1009C13.8798 28.1022 13.8896 28.1043 13.9002 28.1056C13.9422 28.1102 13.9852 28.1128 14.0289 28.1128C14.0727 28.1128 14.1156 28.1102 14.1581 28.1056C14.1683 28.1043 14.1785 28.1022 14.1887 28.1009C14.221 28.0966 14.2532 28.0915 14.2847 28.0847C14.2962 28.0818 14.3072 28.0788 14.3187 28.0758C14.3488 28.0682 14.3781 28.0601 14.4075 28.0503C14.4194 28.0465 14.4308 28.0418 14.4427 28.0372C14.4703 28.027 14.4975 28.0163 14.5239 28.004C14.5366 27.9981 14.5489 27.9921 14.5608 27.9862C14.5859 27.9734 14.6105 27.9598 14.6348 27.9458C14.6471 27.9386 14.6598 27.9309 14.6717 27.9233C14.6951 27.908 14.7176 27.8923 14.7401 27.8753C14.7516 27.8668 14.7631 27.8587 14.7741 27.8498C14.7988 27.8303 14.8221 27.809 14.8446 27.7878C14.8523 27.7805 14.8604 27.7742 14.8676 27.7669C14.8973 27.7372 14.9258 27.7062 14.9526 27.6735L14.9543 27.6709L18.1891 23.6785C18.6038 23.1662 18.5259 22.4142 18.0148 21.9987Z" fill="#06B0D8"/>
</svg>
