<svg width="29" height="29" viewBox="0 0 29 29" fill="none" xmlns="http://www.w3.org/2000/svg">
<g clip-path="url(#clip0_25_92)">
<path fill-rule="evenodd" clip-rule="evenodd" d="M14.5406 10.6703C11.5497 10.6703 9.20544 8.32607 9.20544 5.33517C9.20544 2.42515 11.5497 0 14.5406 0C17.4506 0 19.8758 2.42502 19.8758 5.33517C19.8758 8.32611 17.4508 10.6703 14.5406 10.6703Z" fill="white"/>
<path fill-rule="evenodd" clip-rule="evenodd" d="M14.5406 11.5594C19.795 11.5594 23.9984 15.5203 23.9984 20.4512V22.2296C23.9984 22.7955 23.5134 23.1996 22.9475 23.1996H6.13325C5.48659 23.1996 5.00159 22.7953 5.00159 22.2296V20.4512C5.00159 15.5204 9.28572 11.5594 14.5401 11.5594H14.5406Z" fill="white"/>
</g>
<defs>
<clipPath id="clip0_25_92">
<rect width="29" height="29" fill="white"/>
</clipPath>
</defs>
</svg>
