<svg width="29" height="29" viewBox="0 0 29 29" fill="none" xmlns="http://www.w3.org/2000/svg">
<g opacity="0.5" clip-path="url(#clip0_108_13)">
<path d="M1.45 18.85C0.649269 18.85 0 18.2007 0 17.4C0 16.6564 0.559783 16.0435 1.28089 15.9597L1.45 15.95H17.4C17.4 13.5476 19.3476 11.6 21.75 11.6H24.65C27.0524 11.6 29 13.5476 29 15.95V18.85C29 21.2523 27.0524 23.2 24.65 23.2H21.75C19.3476 23.2 17.4 21.2523 17.4 18.85L1.45 18.85ZM24.65 14.5H21.75C21.0064 14.5 20.3935 15.0598 20.3097 15.7809L20.3 15.95V18.85C20.3 19.5936 20.8598 20.2065 21.5809 20.2903L21.75 20.3H24.65C25.3936 20.3 26.0064 19.7402 26.0903 19.0191L26.1 18.85V15.95C26.1 15.2064 25.5402 14.5936 24.8191 14.5097L24.65 14.5ZM7.25 0C9.65236 0 11.6 1.94764 11.6 4.35H27.55C28.3507 4.35 29 4.99927 29 5.8C29 6.5436 28.4402 7.15646 27.7191 7.24031L27.55 7.25002H11.6C11.6 9.65238 9.65236 11.6 7.25 11.6H4.35C1.94764 11.6 0 9.65238 0 7.25002V4.35002C0 1.94766 1.94764 1.57429e-05 4.35 1.57429e-05L7.25 0ZM7.25 2.9H4.35C3.6064 2.9 2.99355 3.45978 2.90969 4.18089L2.89998 4.35V7.25C2.89998 7.9936 3.45977 8.60645 4.18087 8.69031L4.34998 8.70002H7.24998C7.99359 8.70002 8.60644 8.14023 8.69029 7.41913L8.7 7.25002V4.35002C8.7 3.60641 8.14022 2.99356 7.41911 2.90971L7.25 2.9Z" fill="black"/>
</g>
<defs>
<clipPath id="clip0_108_13">
<rect width="29" height="29" fill="white"/>
</clipPath>
</defs>
</svg>
