<svg width="27" height="27" viewBox="0 0 27 27" fill="none" xmlns="http://www.w3.org/2000/svg">
<g opacity="0.5">
<path fill-rule="evenodd" clip-rule="evenodd" d="M22.1832 11.8206H16.6556C16.1742 11.821 15.7125 12.0126 15.3722 12.3531C15.0318 12.6934 14.8405 13.1551 14.84 13.6365V18.272C14.8403 18.7533 15.0317 19.215 15.3722 19.5555C15.7125 19.8962 16.174 20.0877 16.6556 20.0883H22.1832C22.6643 20.0877 23.1257 19.8965 23.4659 19.5563C23.8061 19.2162 23.9976 18.755 23.9982 18.2739V13.6365C23.9978 13.1552 23.8064 12.6937 23.4662 12.3533C23.126 12.013 22.6645 11.8215 22.1832 11.8209V11.8206ZM22.1832 1.51315H16.6556C16.1742 1.51376 15.7127 1.70511 15.3723 2.04548C15.0319 2.38585 14.8404 2.84718 14.84 3.32859V7.96411C14.8404 8.44548 15.0319 8.90699 15.3723 9.24738C15.7127 9.58789 16.1742 9.7794 16.6556 9.78001H22.1832C22.6645 9.77926 23.126 9.58776 23.4662 9.24738C23.8064 8.90702 23.9978 8.44567 23.9982 7.96426V3.32836C23.9976 2.84726 23.8063 2.38591 23.4661 2.04571C23.1257 1.7055 22.6645 1.51416 22.1832 1.51354V1.51315ZM10.3441 1.51315H4.81684C4.33559 1.51376 3.87423 1.70526 3.53403 2.04563C3.19367 2.38599 3.00233 2.84734 3.00171 3.32859V7.96411C3.00231 8.44537 3.19366 8.90683 3.53388 9.24723C3.87409 9.58759 4.33528 9.77924 4.81669 9.77997H10.3444C10.8257 9.77952 11.2872 9.58802 11.6277 9.24765C11.9681 8.90729 12.1595 8.44564 12.1599 7.96426V3.32836C12.1595 2.84711 11.968 2.38575 11.6274 2.0454C11.2871 1.70519 10.8256 1.51385 10.3443 1.51354L10.3441 1.51315ZM10.3441 11.8206H4.81684C4.33559 11.8212 3.87412 12.0127 3.53388 12.3532C3.19352 12.6936 3.00217 13.1551 3.00171 13.6365V18.272C3.00201 18.7534 3.19336 19.2149 3.53357 19.5554C3.87378 19.8959 4.33528 20.0876 4.81669 20.0883H10.3444C10.8256 20.088 11.2871 19.8968 11.6275 19.5566C11.9679 19.2164 12.1593 18.755 12.16 18.2739V13.6365C12.1595 13.1551 11.9682 12.6936 11.6278 12.3532C11.2873 12.0129 10.8258 11.8215 10.3444 11.8212L10.3441 11.8206Z" fill="#38C6F4"/>
</g>
</svg>
