<svg width="37" height="37" viewBox="0 0 37 37" fill="none" xmlns="http://www.w3.org/2000/svg">
<path fill-rule="evenodd" clip-rule="evenodd" d="M30.6598 25.3413C30.818 25.3395 30.9706 25.4008 31.0831 25.5121C31.1956 25.6234 31.259 25.7749 31.259 25.9333C31.259 26.0916 31.1956 26.2432 31.0831 26.3545C30.9706 26.4658 30.818 26.5273 30.6598 26.5252H6.34711C6.18895 26.5273 6.03637 26.4658 5.92384 26.3545C5.81131 26.2432 5.74792 26.0916 5.74792 25.9333C5.74792 25.7749 5.81131 25.6234 5.92384 25.5121C6.03637 25.4008 6.18895 25.3395 6.34711 25.3413H30.6598Z" fill="white"/>
<path fill-rule="evenodd" clip-rule="evenodd" d="M20.3315 3.07502C20.544 3.07296 20.7411 3.18507 20.8483 3.36863C20.9552 3.55219 20.9559 3.77889 20.8495 3.96285L20.0447 5.35965L19.3231 6.6084V7.85715C26.1295 8.2796 31.5241 13.9542 31.5241 20.8811C31.5241 21.7097 31.4533 22.5263 31.3021 23.3138V23.314C31.2489 23.5936 31.004 23.7955 30.7195 23.7949H6.28997C6.00235 23.7947 5.75664 23.588 5.70732 23.3047C5.56135 22.5212 5.47607 21.7118 5.47607 20.8811C5.47607 13.8041 11.1223 8.03524 18.1391 7.83861V6.60847L18.0559 6.47901L17.4084 5.3597L16.6128 3.9629C16.5073 3.78038 16.5069 3.55553 16.6118 3.37259C16.7167 3.18966 16.9107 3.0763 17.1215 3.07486H20.3312L20.3315 3.07502ZM19.5822 10.364H19.5824C19.2558 10.3595 18.9871 10.6203 18.9822 10.9469C18.977 11.2733 19.2374 11.5424 19.5641 11.5479C20.8531 11.5665 22.9622 12.6377 24.6423 14.3968C26.3223 16.1562 27.5993 18.5531 27.5746 21.0843L27.5744 21.0845C27.5723 21.4113 27.8352 21.6781 28.1618 21.6806C28.4887 21.6831 28.7556 21.4204 28.7585 21.0938C28.7872 18.162 27.3353 15.5115 25.4934 13.5828C23.6514 11.6539 21.4411 10.3904 19.5829 10.3639L19.5822 10.364Z" fill="white"/>
</svg>
