<svg width="27" height="24" viewBox="0 0 27 24" fill="none" xmlns="http://www.w3.org/2000/svg">
<path fill-rule="evenodd" clip-rule="evenodd" d="M25.1837 22.2665C25.3419 22.2646 25.4945 22.3259 25.607 22.4372C25.7195 22.5485 25.7829 22.7001 25.7829 22.8584C25.7829 23.0168 25.7195 23.1683 25.607 23.2796C25.4945 23.3909 25.3419 23.4524 25.1837 23.4504H0.871034C0.712875 23.4525 0.560292 23.3909 0.447764 23.2796C0.335237 23.1683 0.271851 23.0168 0.271851 22.8584C0.271851 22.7001 0.335237 22.5485 0.447764 22.4372C0.560292 22.3259 0.712875 22.2646 0.871034 22.2665H25.1837Z" fill="#38C6F4"/>
<path fill-rule="evenodd" clip-rule="evenodd" d="M14.8554 0.000163324C15.0679 -0.00190138 15.2651 0.110212 15.3722 0.293769C15.4792 0.477326 15.4798 0.70403 15.3735 0.887989L14.5686 2.28479L13.847 3.53354V4.78229C20.6534 5.20474 26.048 10.8794 26.048 17.8063C26.048 18.6349 25.9772 19.4515 25.8261 20.2389V20.2391C25.7728 20.5187 25.5279 20.7206 25.2434 20.72H0.813894C0.526277 20.7198 0.280566 20.5131 0.23125 20.2299C0.0852744 19.4463 0 18.6369 0 17.8062C0 10.7292 5.6462 4.96038 12.663 4.76375V3.53361L12.5798 3.40415L11.9323 2.28484L11.1367 0.888042C11.0312 0.705521 11.0308 0.480672 11.1357 0.297734C11.2406 0.1148 11.4347 0.001443 11.6455 0H14.8551L14.8554 0.000163324ZM14.1061 7.28916H14.1063C13.7797 7.28462 13.511 7.5454 13.5061 7.87202C13.501 8.19845 13.7613 8.46751 14.088 8.47306C15.377 8.49164 17.4861 9.56281 19.1662 11.322C20.8462 13.0813 22.1233 15.4783 22.0985 18.0094L22.0983 18.0096C22.0963 18.3365 22.3591 18.6032 22.6857 18.6057C23.0126 18.6082 23.2795 18.3456 23.2824 18.0189C23.3111 15.0872 21.8592 12.4367 20.0173 10.5079C18.1753 8.57903 15.965 7.31559 14.1068 7.289L14.1061 7.28916Z" fill="#38C6F4"/>
</svg>
