<svg width="35" height="35" viewBox="0 0 35 35" fill="none" xmlns="http://www.w3.org/2000/svg">
<g opacity="0.5">
<path d="M17.5 26.32C18.956 26.32 20.132 25.228 20.272 23.8001H14.728C14.8681 25.2281 16.044 26.32 17.5001 26.32H17.5Z" fill="#0ACDFF"/>
<path d="M25.62 18.76V13.216C25.62 11.2 24.864 9.26796 23.4639 7.81201C23.0159 7.33604 22.512 6.91591 21.9799 6.57996C21.9799 6.57996 20.58 5.79596 19.5999 5.57196C19.5719 5.57196 19.5438 5.57196 19.5159 5.54403C19.5719 5.34794 19.5999 5.12411 19.5999 4.92803C19.5999 3.77998 18.6479 2.82803 17.4999 2.82803C16.3518 2.82803 15.3999 3.77998 15.3999 4.92803C15.3999 5.15206 15.4278 5.34795 15.5118 5.54403C13.9999 5.87997 12.6278 6.66393 11.5358 7.81198C10.136 9.26783 9.38012 11.1999 9.38012 13.216V17.64H21.9801C22.2881 17.64 22.5401 17.8919 22.5401 18.1999C22.5401 18.5079 22.2881 18.7599 21.9801 18.7599H9.38012C8.31607 18.7599 7.42017 19.6278 7.42017 20.7198C7.42017 21.7839 8.31627 22.6798 9.38012 22.6798H17.7521L24.7801 22.68H25.6202C26.6842 22.68 27.5801 21.7839 27.5801 20.72C27.5801 19.6278 26.684 18.7599 25.62 18.7599L25.62 18.76Z" fill="#0ACDFF"/>
</g>
</svg>
