<svg width="27" height="27" viewBox="0 0 27 27" fill="none" xmlns="http://www.w3.org/2000/svg">
<g opacity="0.35">
<path d="M13.5 2.05197C8.68315 2.05197 4.75195 5.98317 4.75195 10.8C4.75195 15.6168 8.68315 19.548 13.5 19.548C18.3168 19.548 22.248 15.6168 22.248 10.8C22.248 5.98317 18.3168 2.05197 13.5 2.05197ZM13.5 17.82C9.63355 17.82 6.47995 14.6663 6.47995 10.8C6.47995 6.93365 9.63363 3.77997 13.5 3.77997C17.3663 3.77997 20.52 6.93365 20.52 10.8C20.52 14.6663 17.3663 17.82 13.5 17.82Z" fill="black"/>
<path d="M13.8888 10.4544V6.11282H12.1609V12.204L17.3017 12.1825V10.4544L13.8888 10.4544Z" fill="black"/>
</g>
</svg>
