<svg width="41" height="42" viewBox="0 0 41 42" fill="none" xmlns="http://www.w3.org/2000/svg">
<path d="M33.8127 0H7.18735C5.28179 0.00175786 3.45457 0.777831 2.1069 2.15829C0.759238 3.53875 0.00168394 5.41054 0 7.36265V34.6373C0.00171601 36.5894 0.759311 38.4612 2.1069 39.8417C3.45449 41.2222 5.28172 41.9983 7.18735 42H33.8127C35.7185 41.9982 37.5457 41.2222 38.8931 39.8417C40.2407 38.4613 40.9983 36.5895 41 34.6373V7.36265C40.9983 5.41061 40.2407 3.53883 38.8931 2.15829C37.5458 0.777831 35.7186 0.00172501 33.8127 0ZM18.6791 28.1905L11.2295 20.5629L14.1773 17.5429L18.6791 22.1505L26.8214 13.8097L29.7691 16.8297L18.6791 28.1905Z" fill="#06B0D8"/>
</svg>
