<svg width="49" height="42" viewBox="0 0 49 42" fill="none" xmlns="http://www.w3.org/2000/svg">
<path d="M28.5884 21.0001L32.8256 16.7399L35.7502 19.68C35.0937 12.0599 28.6478 6 20.8891 6C12.6527 6 5.96833 12.7199 5.96832 21C5.96832 29.2801 12.6532 36 20.8891 36L23.8733 36L23.8733 42L20.8891 42C9.37026 42 9.66482e-07 32.5798 1.97882e-06 21C2.99116e-06 9.42021 9.37048 -3.46452e-06 20.8891 -2.45753e-06C31.9902 -1.48704e-06 41.1217 8.76022 41.7185 19.8L44.7623 16.7398L49 21L38.794 31.2602L28.5884 21.0001Z" fill="#06B0D8"/>
</svg>
