<svg width="45" height="45" viewBox="0 0 45 45" fill="none" xmlns="http://www.w3.org/2000/svg">
<path d="M35.1045 7.614C35.1391 8.00775 34.8476 8.35528 34.4538 8.38993C34.4325 8.39168 34.4109 8.39294 34.3903 8.39294C34.0229 8.39294 33.7108 8.11194 33.6781 7.7398L33.5149 5.88053C27.5225 12.8665 18.7324 17.7502 10.6723 18.4728C10.6507 18.4751 10.6288 18.4758 10.6077 18.4758C10.2411 18.4758 9.92894 18.1958 9.89558 17.8236C9.86042 17.4299 10.1512 17.0819 10.545 17.0467C18.1346 16.3659 26.7405 11.5618 32.4458 4.92497L30.5238 5.09347C30.1278 5.12938 29.7826 4.83658 29.7477 4.44258C29.7135 4.04883 30.0045 3.7013 30.3983 3.66665L34.0119 3.34974C34.0267 3.34824 34.0405 3.35075 34.0553 3.3505C34.0844 3.34974 34.1133 3.34899 34.1419 3.352C34.162 3.35376 34.1819 3.35828 34.2017 3.3618C34.2271 3.36632 34.2524 3.37109 34.277 3.37837C34.3006 3.3854 34.3225 3.39444 34.3446 3.40373C34.3642 3.41177 34.3843 3.41905 34.4033 3.42935C34.4305 3.44341 34.4556 3.46023 34.4797 3.47706C34.49 3.48434 34.5018 3.48961 34.5121 3.49715C34.5151 3.49941 34.5168 3.50267 34.5199 3.50443C34.546 3.52527 34.5698 3.54888 34.5927 3.57349C34.6022 3.58328 34.6125 3.59232 34.6213 3.60287C34.6414 3.62723 34.6585 3.65359 34.6753 3.68046C34.6833 3.69327 34.6934 3.70532 34.7002 3.71838C34.713 3.74223 34.7225 3.76785 34.7333 3.79321C34.7406 3.81154 34.7494 3.82912 34.7554 3.84771C34.7619 3.86855 34.7652 3.89065 34.7702 3.91274C34.7752 3.9376 34.7815 3.96221 34.7843 3.98682C34.7845 3.99134 34.7865 3.99611 34.7868 4.00038L35.1045 7.614ZM16.5375 33.1502H21.7702L21.7704 19.6097H16.5375L16.5375 33.1502ZM10.0279 33.1502H15.2604V21.3043H10.0279V33.1502ZM29.5573 33.1502H34.79L34.7902 12.0555H29.5572L29.5573 33.1502ZM23.0477 33.1502H28.2804L28.2807 16.6873H23.0477L23.0477 33.1502Z" fill="white"/>
</svg>
