<svg width="31" height="16" viewBox="0 0 31 16" fill="none" xmlns="http://www.w3.org/2000/svg">
<path d="M9.66406 6.30267H22.8929V8.79873H9.66406V6.30267Z" fill="#38C6F4"/>
<path d="M27.6569 1.02987C27.6056 0.741282 27.4543 0.479687 27.2295 0.291429C27.0047 0.103176 26.7209 0.00023265 26.4275 0.00023265H3.68939C3.39646 -0.00542569 3.11091 0.0922887 2.88282 0.275973C2.65472 0.459658 2.49826 0.717553 2.44124 1.00483L0.023347 13.3383C-0.0484743 13.7046 0.0472867 14.0839 0.284725 14.3721C0.522162 14.6602 0.876021 14.8269 1.24947 14.8265H4.87809L4.90616 14.9762C4.95731 15.2648 5.10878 15.5264 5.3336 15.7147C5.55819 15.9029 5.84221 16.0059 6.13538 16.0059H28.8334C29.2027 16.0061 29.5531 15.8426 29.7903 15.5595C30.0278 15.2766 30.1274 14.9031 30.0628 14.5394L27.6569 1.02987ZM2.76269 12.3276L3.63629 7.85046L4.43195 12.3276H2.76269ZM7.17738 13.51L5.21802 2.49643H25.3827L27.3421 13.5067L7.17738 13.51Z" fill="#38C6F4"/>
</svg>
