<svg xmlns="http://www.w3.org/2000/svg" viewBox="0 0 32 40" x="0px" y="0px"><title>Default View</title><g data-name="Default View"><path d="M15.38,16.08A1,1,0,0,0,15,16H10a1,1,0,0,0,0,2h2.59l-6.3,6.29a1,1,0,0,0,0,1.42,1,1,0,0,0,1.42,0L14,19.41V22a1,1,0,0,0,2,0V17a1,1,0,0,0-.08-.38A1,1,0,0,0,15.38,16.08Z"/><path d="M16.62,15.92A1,1,0,0,0,17,16h5a1,1,0,0,0,0-2H19.41l6.3-6.29a1,1,0,1,0-1.42-1.42L18,12.59V10a1,1,0,0,0-2,0v5a1,1,0,0,0,.08.38A1,1,0,0,0,16.62,15.92Z"/><path d="M7,15a1,1,0,0,0,1-1V8h6a1,1,0,0,0,0-2H7A1,1,0,0,0,6,7v7A1,1,0,0,0,7,15Z"/><path d="M25,17a1,1,0,0,0-1,1v6H18a1,1,0,0,0,0,2h7a1,1,0,0,0,1-1V18A1,1,0,0,0,25,17Z"/></g><text x="0" y="47" fill="#000000" font-size="5px" font-weight="bold" font-family="'Helvetica Neue', Helvetica, Arial-Unicode, Arial, Sans-serif">Created by Luthfi Asiddiqi</text><text x="0" y="52" fill="#000000" font-size="5px" font-weight="bold" font-family="'Helvetica Neue', Helvetica, Arial-Unicode, Arial, Sans-serif">from the Noun Project</text></svg>