<svg width="43" height="43" viewBox="0 0 43 43" fill="none" xmlns="http://www.w3.org/2000/svg">
<path d="M32.3403 6.81303V9.41994H7.0188V6.81303C7.01952 6.5486 7.1251 6.29521 7.31275 6.10851C7.50015 5.92206 7.75403 5.81768 8.01844 5.81864H9.30316V7.27517C9.30316 7.85131 9.61054 8.38353 10.1094 8.67169C10.6083 8.95964 11.223 8.95964 11.7219 8.67169C12.2208 8.3835 12.5282 7.85131 12.5282 7.27517V5.81864H15.1458V7.27517C15.1458 7.85131 15.4532 8.38353 15.9521 8.67169C16.4509 8.95964 17.0657 8.95964 17.5646 8.67169C18.0634 8.3835 18.3708 7.85131 18.3708 7.27517V5.81864H20.9885V7.27517C20.9885 7.85131 21.2956 8.38353 21.7947 8.67169C22.2936 8.95964 22.9081 8.95964 23.4072 8.67169C23.9061 8.3835 24.2135 7.85131 24.2135 7.27517V5.81864H26.8311V7.27517H26.8309C26.8309 7.85131 27.1383 8.38353 27.6371 8.67169C28.1362 8.95964 28.7508 8.95964 29.2496 8.67169C29.7487 8.3835 30.0559 7.85131 30.0559 7.27517V5.81864H31.3459C31.6096 5.81888 31.8623 5.92374 32.0487 6.11019C32.2351 6.29663 32.34 6.5493 32.3402 6.81299L32.3403 6.81303Z" fill="white"/>
<path d="M11.4533 4.35662V7.27522C11.4533 7.57204 11.2126 7.81272 10.9158 7.81272C10.619 7.81272 10.3783 7.57204 10.3783 7.27522V4.35662C10.3783 4.0598 10.619 3.81912 10.9158 3.81912C11.2126 3.81912 11.4533 4.0598 11.4533 4.35662Z" fill="white"/>
<path d="M17.2958 4.35662V7.27522C17.2958 7.57204 17.0551 7.81272 16.7583 7.81272C16.4615 7.81272 16.2208 7.57204 16.2208 7.27522V4.35662C16.2208 4.0598 16.4615 3.81912 16.7583 3.81912C17.0551 3.81912 17.2958 4.0598 17.2958 4.35662Z" fill="white"/>
<path d="M23.1388 4.35662V7.27522C23.1388 7.57204 22.8982 7.81272 22.6013 7.81272C22.3043 7.81272 22.0638 7.57204 22.0638 7.27522V4.35662C22.0638 4.0598 22.3043 3.81912 22.6013 3.81912C22.8982 3.81912 23.1388 4.0598 23.1388 4.35662Z" fill="white"/>
<path d="M28.9814 4.35662V7.27522C28.9814 7.57204 28.7407 7.81272 28.4439 7.81272C28.147 7.81272 27.9064 7.57204 27.9064 7.27522V4.35662C27.9064 4.0598 28.147 3.81912 28.4439 3.81912C28.7407 3.81912 28.9814 4.0598 28.9814 4.35662Z" fill="white"/>
<path d="M7.30188 12.5472C7.30188 11.4426 8.19731 10.5472 9.30188 10.5472H30.4528C31.5574 10.5472 32.4528 11.4426 32.4528 12.5472V25.5849C32.4528 26.6895 31.5574 27.5849 30.4528 27.5849H9.30188C8.19731 27.5849 7.30188 26.6895 7.30188 25.5849V12.5472Z" fill="white"/>
<path d="M7.30188 10.5472H32.4528V23.5283H7.30188V10.5472Z" fill="white"/>
</svg>
