<svg width="20" height="20" viewBox="0 0 20 20" fill="none" xmlns="http://www.w3.org/2000/svg">
<path d="M8.39342 0.000267698C5.70567 0.0014162 3.18098 1.28913 1.60215 3.46394C0.0231432 5.63898 -0.419475 8.43817 0.411602 10.9938C1.24291 13.5497 3.24707 15.5534 5.8034 16.3838C8.35955 17.2139 11.1587 16.7704 13.3333 15.1907L17.5155 19.3729C17.8483 19.7057 18.3337 19.8358 18.7884 19.714C19.2433 19.592 19.5984 19.2369 19.7204 18.7821C19.8421 18.3273 19.7121 17.8419 19.3793 17.5091L15.1971 13.3269C16.4186 11.648 16.9741 9.57584 16.7565 7.51106C16.5388 5.44627 15.5635 3.53561 14.0187 2.14819C12.4741 0.760768 10.4697 -0.00456622 8.39373 2.04975e-05L8.39342 0.000267698ZM8.39342 14.1603C6.86499 14.1603 5.39924 13.5532 4.31848 12.4724C3.23772 11.3917 2.63063 9.92592 2.63063 8.39748C2.63063 6.86905 3.23772 5.4033 4.31848 4.32254C5.39924 3.24178 6.86499 2.63469 8.39342 2.63469C9.92186 2.63469 11.3876 3.24178 12.4684 4.32254C13.5491 5.4033 14.1562 6.86905 14.1562 8.39748C14.1544 9.92521 13.5468 11.3901 12.4663 12.4704C11.386 13.5509 9.92121 14.1585 8.39342 14.1603Z" fill="#747474"/>
</svg>
