<svg width="45" height="45" viewBox="0 0 45 45" fill="none" xmlns="http://www.w3.org/2000/svg">
<path d="M22.4974 2.16013C21.7207 2.1644 20.945 2.22567 20.1773 2.3442H20.1776C20.0791 2.35977 19.9968 2.42656 19.9614 2.51973C19.7097 3.17165 19.717 3.89686 19.4867 4.55952C19.2565 5.22224 18.8339 5.83996 17.6631 6.32487C16.4937 6.80927 15.7582 6.67216 15.1269 6.36705C14.4958 6.06195 13.9886 5.54516 13.3507 5.2614V5.26115C13.2593 5.21997 13.1529 5.23127 13.072 5.29078C11.8232 6.21791 10.7186 7.32459 9.79195 8.57386C9.73193 8.65421 9.71988 8.76094 9.76056 8.85259C10.0446 9.48993 10.5628 9.9972 10.8678 10.628C11.1726 11.259 11.3082 11.9943 10.8241 13.1635C10.3399 14.3322 9.72464 14.7556 9.06321 14.9863C8.40177 15.2171 7.67727 15.2103 7.02567 15.4594C6.93276 15.4945 6.86546 15.5767 6.84964 15.6748C6.7291 16.443 6.66632 17.2187 6.65955 17.9961V18.0007C6.66432 18.7774 6.72509 19.553 6.84362 20.3207L6.84387 20.3205C6.85944 20.4189 6.92623 20.5013 7.01915 20.5367C7.67107 20.7883 8.39628 20.781 9.05893 21.0113C9.72159 21.2416 10.3394 21.6642 10.8243 22.8349C11.3087 24.0043 11.1716 24.7399 10.8665 25.3712C10.5614 26.0022 10.0446 26.5095 9.76082 27.1473H9.76057C9.71964 27.2387 9.73094 27.3452 9.79045 27.426C10.7176 28.6749 11.8243 29.781 13.0735 30.7076C13.1541 30.7672 13.2609 30.7785 13.3523 30.7375C13.9896 30.4535 14.4976 29.9367 15.1284 29.6319C15.7595 29.327 16.494 29.1912 17.6632 29.6756C18.8319 30.1597 19.2553 30.775 19.486 31.4364C19.7168 32.0979 19.7093 32.8224 19.9584 33.474V33.4737C19.994 33.5664 20.0764 33.6332 20.1746 33.6485C20.9427 33.769 21.7185 33.8333 22.4959 33.8398H22.5004C23.2771 33.8356 24.0528 33.7728 24.8205 33.6543H24.8202C24.9181 33.6389 25.0005 33.5726 25.0364 33.4802C25.288 32.8283 25.2808 32.1019 25.511 31.4392C25.7413 30.7764 26.1639 30.1602 27.3346 29.6753C28.504 29.1909 29.2404 29.3265 29.8714 29.6316C30.5024 29.9367 31.0097 30.455 31.6476 30.7388C31.7395 30.7795 31.8459 30.7677 31.9263 30.7077C33.1751 29.7805 34.2805 28.6738 35.2071 27.4246C35.2671 27.344 35.2787 27.2375 35.2377 27.1458C34.9537 26.5085 34.4362 26.0028 34.1313 25.3719C33.8265 24.7409 33.6909 24.0041 34.175 22.8352C34.6592 21.6665 35.2744 21.2431 35.9359 21.0123C36.5973 20.7816 37.3218 20.7891 37.9734 20.54V20.5397C38.0661 20.5041 38.1326 20.4217 38.1482 20.3235C38.2687 19.5554 38.333 18.7796 38.3395 18.0022V17.9977C38.3348 17.221 38.2725 16.4453 38.154 15.6776V15.6779C38.1387 15.58 38.0724 15.4976 37.9799 15.4617C37.328 15.2101 36.6016 15.2174 35.9389 14.9871C35.2762 14.7568 34.6599 14.3342 34.175 13.1635C33.6906 11.9941 33.8262 11.2585 34.1313 10.6272C34.4364 9.99617 34.9547 9.48891 35.2385 8.85107C35.2792 8.75941 35.2671 8.65294 35.2071 8.57233C34.28 7.32352 33.1741 6.2189 31.9247 5.29228H31.925C31.8444 5.23227 31.7379 5.22021 31.646 5.2609C31.0087 5.54491 30.5022 6.06318 29.8714 6.36809C29.2404 6.67294 28.5036 6.8088 27.3346 6.32439C26.1659 5.84025 25.7433 5.22498 25.5125 4.56354C25.2817 3.90211 25.2885 3.17761 25.0394 2.52601C25.004 2.43284 24.9216 2.36579 24.8232 2.34997C24.055 2.22944 23.2793 2.16666 22.5019 2.15988H22.4974L22.4974 2.16013ZM22.4989 9.78249C27.0405 9.78249 30.7159 13.4578 30.7159 17.9995C30.7159 22.5411 27.0405 26.2178 22.4989 26.2178C17.9572 26.2178 14.2819 22.541 14.2819 17.9995C14.2819 13.4578 17.9572 9.78249 22.4989 9.78249Z" fill="white"/>
</svg>
