<svg width="159" height="140" viewBox="0 0 159 140" fill="none" xmlns="http://www.w3.org/2000/svg">
<g clip-path="url(#clip0_27_1228)">
<g opacity="0.1">
<path d="M79.5 140C123.407 140 159 119.795 159 94.8716C159 69.9479 123.407 49.7432 79.5 49.7432C35.5934 49.7432 0 69.9479 0 94.8716C0 119.795 35.5934 140 79.5 140Z" fill="#010101"/>
</g>
<path d="M15.9969 108.959L12.1189 102.644V53.5808H15.9969V108.959Z" fill="#38C6F4"/>
<path d="M23.2683 106.044L15.9969 108.959V53.5808H23.2683V106.044Z" fill="#06B0D8"/>
<path d="M140.094 111.388L136.216 105.073V56.0097H140.094V111.388Z" fill="#38C6F4"/>
<path d="M147.366 108.473L140.094 111.388V56.0097H147.366V108.473Z" fill="#06B0D8"/>
<path d="M75.1372 136.648L71.2592 130.333V81.27H75.1372V136.648Z" fill="#38C6F4"/>
<path d="M82.4085 133.734L75.1372 136.648V81.27H82.4085V133.734Z" fill="#06B0D8"/>
<path opacity="0.1" d="M71.4046 107.259L75.1372 108.959L82.4085 107.599V103.616L71.3076 103.713L71.4046 107.259Z" fill="#010101"/>
<path d="M79.0153 104.539C118.906 104.539 151.244 82.6592 151.244 55.6697C151.244 28.6802 118.906 6.80083 79.0153 6.80083C39.1245 6.80083 6.78662 28.6802 6.78662 55.6697C6.78662 82.6592 39.1245 104.539 79.0153 104.539Z" fill="#38C6F4"/>
<path d="M79.0153 97.7377C118.906 97.7377 151.244 75.8584 151.244 48.8688C151.244 21.8793 118.906 0 79.0153 0C39.1245 0 6.78662 21.8793 6.78662 48.8688C6.78662 75.8584 39.1245 97.7377 79.0153 97.7377Z" fill="#A3DDF3"/>
</g>
<defs>
<clipPath id="clip0_27_1228">
<rect width="159" height="140" fill="white"/>
</clipPath>
</defs>
</svg>
