<svg width="141" height="153" viewBox="0 0 141 153" fill="none" xmlns="http://www.w3.org/2000/svg">
<g clip-path="url(#clip0_27_1313)">
<g opacity="0.1">
<path d="M71.0096 153L1.46753 100.322L71.2134 47.4799L141 100.322L71.0096 153Z" fill="#010101"/>
</g>
<path d="M13.3296 107.075L7.41895 101.836L7.70429 48.053H13.3296V107.075Z" fill="#38C6F4"/>
<path d="M21.7268 100.731L13.1257 107.157L13.3295 52.187H21.9714L21.7268 100.731Z" fill="#06B0D8"/>
<path d="M69.1752 143.504L63.2645 138.265L63.5499 84.4815H69.1752V143.504Z" fill="#38C6F4"/>
<path d="M77.5725 137.16L68.9714 143.586L69.1753 88.6156H77.8171L77.5725 137.16Z" fill="#06B0D8"/>
<path d="M127.874 105.848L121.964 100.608L122.249 46.825H127.874V105.848Z" fill="#38C6F4"/>
<path d="M136.271 99.5032L127.67 105.929L127.874 50.9591H136.516L136.271 99.5032Z" fill="#06B0D8"/>
<path d="M69.7866 112.478L0 59.6774L69.7866 6.83548L139.533 59.6774L69.7866 112.478Z" fill="#38C6F4"/>
<path d="M69.7866 112.478V105.111L139.899 52.7191L139.492 60.0867L69.7866 112.478Z" fill="#38C6F4"/>
<path d="M9.45709 52.7191H0.081543V59.6774H9.45709V52.7191Z" fill="#38C6F4"/>
<path d="M69.7867 105.52L0.244629 52.8419L69.9905 0L139.777 52.8419L69.7867 105.52Z" fill="#A3DDF3"/>
</g>
<defs>
<clipPath id="clip0_27_1313">
<rect width="141" height="153" fill="white"/>
</clipPath>
</defs>
</svg>
