<svg width="204" height="111" viewBox="0 0 204 111" fill="none" xmlns="http://www.w3.org/2000/svg">
<g clip-path="url(#clip0_27_1159)">
<g opacity="0.1">
<path d="M204 111H0L17.7391 48.5887H193.863L204 111Z" fill="#010101"/>
</g>
<path d="M29.5652 76.1921V33.5513H32.0993V72.883L29.5652 76.1921Z" fill="#06B0D8"/>
<path d="M29.5652 33.5513H19.851V76.1921H29.5652V33.5513Z" fill="#38C6F4"/>
<path d="M176.124 76.1921V33.5513H173.59V72.883L176.124 76.1921Z" fill="#06B0D8"/>
<path d="M185.839 33.5513H176.124V76.1921H185.839V33.5513Z" fill="#38C6F4"/>
<path d="M18.5839 103.837V61.1966H21.118V100.528L18.5839 103.837Z" fill="#06B0D8"/>
<path d="M18.5838 61.1966H8.86951V103.837H18.5838V61.1966Z" fill="#38C6F4"/>
<path d="M187.106 105.513V62.8721H184.571V102.204L187.106 105.513Z" fill="#06B0D8"/>
<path d="M196.82 62.8721H187.106V105.513H196.82V62.8721Z" fill="#38C6F4"/>
<path d="M204 61.5736H0V68.2755H204V61.5736Z" fill="#38C6F4"/>
<path d="M204 62.4113H0L17.7391 0H193.863L204 62.4113Z" fill="#A3DDF3"/>
</g>
<defs>
<clipPath id="clip0_27_1159">
<rect width="204" height="111" fill="white"/>
</clipPath>
</defs>
</svg>
